<svg width="293" height="200" viewBox="0 0 293 200" fill="none" xmlns="http://www.w3.org/2000/svg">
<g style="mix-blend-mode:luminosity">
<path d="M251.282 36.1854L229.52 36.2077C227.321 36.2102 225.482 38.157 225.419 40.5498C225.342 42.9311 227.052 44.8974 229.265 44.8622L241.411 44.8432L168.614 121.61L121.688 68.9366C120.195 67.2356 117.659 67.2535 116.065 68.946L33.9927 155.469C32.3895 157.168 32.3033 159.896 33.8148 161.582C34.3918 162.241 35.1161 162.644 35.8881 162.792C37.12 163.028 38.4506 162.63 39.4343 161.59L118.601 78.1184L165.53 130.775C166.246 131.593 167.265 132.054 168.317 132.052C169.366 132.059 170.396 131.593 171.165 130.785L246.867 50.9669L246.482 64.1725C246.413 66.2991 247.779 68.0823 249.642 68.4397C249.868 68.4831 250.089 68.5094 250.325 68.5016C252.524 68.499 254.379 66.5552 254.441 64.1624L255.128 40.4978C255.197 38.115 253.471 36.1101 251.282 36.1854Z" fill="#388E9A"/>
</g>
<path d="M20.736 147.368C15.872 147.368 12.096 146.088 9.408 143.528C6.72 140.968 5.376 137.384 5.376 132.776V94.3764C5.376 89.8964 6.656 86.4084 9.216 83.9124C11.84 81.4164 15.456 80.1684 20.064 80.1684H42.24C49.664 80.1684 55.392 81.7364 59.424 84.8724C63.456 88.0084 65.472 92.5524 65.472 98.5044C65.472 101.448 64.608 104.2 62.88 106.76C61.152 109.256 58.912 111.144 56.16 112.424V112.52C59.232 113.736 61.728 115.688 63.648 118.376C65.632 121 66.624 123.848 66.624 126.92C66.624 133.32 64.544 138.344 60.384 141.992C56.288 145.576 50.624 147.368 43.392 147.368H20.736ZM42.24 107.912C45.504 107.912 48.032 107.112 49.824 105.512C51.68 103.912 52.608 101.608 52.608 98.6004C52.608 95.6564 51.744 93.4804 50.016 92.0724C48.288 90.6644 45.696 89.9604 42.24 89.9604H22.08C20.8 89.9604 19.776 90.3764 19.008 91.2084C18.304 92.0404 17.952 93.1924 17.952 94.6644V107.912H42.24ZM42.24 137.576C49.92 137.576 53.76 134.088 53.76 127.112C53.76 124.104 52.736 121.768 50.688 120.104C48.704 118.44 45.888 117.608 42.24 117.608H17.952V132.872C17.952 134.344 18.304 135.496 19.008 136.328C19.776 137.16 20.8 137.576 22.08 137.576H42.24ZM83.3505 93.4164C80.9825 93.4164 79.0625 92.7764 77.5905 91.4964C76.1825 90.1524 75.4785 88.4244 75.4785 86.3124C75.4785 84.2004 76.1825 82.5044 77.5905 81.2244C79.0625 79.8804 80.9825 79.2084 83.3505 79.2084C85.7185 79.2084 87.6385 79.8804 89.1105 81.2244C90.6465 82.5044 91.4145 84.2004 91.4145 86.3124C91.4145 88.4244 90.6465 90.1524 89.1105 91.4964C87.6385 92.7764 85.7185 93.4164 83.3505 93.4164ZM83.4465 148.328C81.4625 148.328 79.9265 147.816 78.8385 146.792C77.7505 145.768 77.2065 144.36 77.2065 142.568V105.128C77.2065 103.336 77.7505 101.928 78.8385 100.904C79.9265 99.8804 81.4625 99.3684 83.4465 99.3684C85.3665 99.3684 86.9025 99.8804 88.0545 100.904C89.2065 101.928 89.7825 103.336 89.7825 105.128V142.568C89.7825 144.36 89.2065 145.768 88.0545 146.792C86.9025 147.816 85.3665 148.328 83.4465 148.328ZM113.669 147.368C109.125 147.368 105.573 146.408 103.013 144.488C100.517 142.504 99.2685 139.752 99.2685 136.232C99.2685 133.736 99.9085 131.56 101.189 129.704C102.533 127.784 104.389 126.344 106.757 125.384L132.389 115.016C133.221 114.696 133.797 114.312 134.117 113.864C134.501 113.416 134.693 112.84 134.693 112.136C134.693 111.56 134.469 111.112 134.021 110.792C133.637 110.408 133.093 110.216 132.389 110.216H107.429C105.189 110.216 103.461 109.8 102.245 108.968C101.093 108.136 100.517 106.92 100.517 105.32C100.517 101.992 102.821 100.328 107.429 100.328H133.445C137.669 100.328 140.997 101.32 143.429 103.304C145.861 105.224 147.077 107.88 147.077 111.272C147.077 113.96 146.405 116.296 145.061 118.28C143.781 120.264 141.957 121.736 139.589 122.696L113.957 133.064C113.061 133.448 112.421 133.864 112.037 134.312C111.653 134.696 111.461 135.176 111.461 135.752C111.461 136.264 111.653 136.68 112.037 137C112.421 137.32 112.901 137.48 113.477 137.48H141.221C145.765 137.48 148.037 139.112 148.037 142.376C148.037 145.704 145.765 147.368 141.221 147.368H113.669ZM186.348 148.328C180.332 148.328 175.052 147.112 170.508 144.68C166.028 142.248 162.54 138.792 160.044 134.312C157.612 129.768 156.396 124.424 156.396 118.28V84.9684C156.396 83.1764 156.972 81.7684 158.124 80.7444C159.276 79.7204 160.812 79.2084 162.732 79.2084C164.652 79.2084 166.188 79.7524 167.34 80.8404C168.556 81.8644 169.164 83.2404 169.164 84.9684V118.568C169.164 124.904 170.668 129.768 173.676 133.16C176.684 136.552 181.004 138.248 186.636 138.248C192.204 138.248 196.492 136.552 199.5 133.16C202.572 129.704 204.108 124.84 204.108 118.568V84.9684C204.108 83.2404 204.684 81.8644 205.836 80.8404C207.052 79.7524 208.62 79.2084 210.54 79.2084C212.46 79.2084 213.996 79.7204 215.148 80.7444C216.3 81.7684 216.876 83.1764 216.876 84.9684V118.28C216.876 124.232 215.596 129.48 213.036 134.024C210.54 138.568 206.988 142.088 202.38 144.584C197.772 147.08 192.428 148.328 186.348 148.328ZM233.525 148.328C231.605 148.328 230.069 147.816 228.917 146.792C227.765 145.768 227.189 144.36 227.189 142.568V94.3764C227.189 89.8964 228.469 86.4084 231.029 83.9124C233.653 81.4164 237.269 80.1684 241.877 80.1684H258.101C267.829 80.1684 275.221 82.1844 280.277 86.2164C285.333 90.2484 287.861 96.1684 287.861 103.976C287.861 111.784 285.397 117.704 280.469 121.736C275.541 125.768 268.277 127.784 258.677 127.784H239.957V142.568C239.957 144.296 239.349 145.704 238.133 146.792C236.981 147.816 235.445 148.328 233.525 148.328ZM258.581 117.896C269.525 117.896 274.997 113.256 274.997 103.976C274.997 94.6964 269.525 90.0564 258.581 90.0564H244.085C242.805 90.0564 241.781 90.4724 241.013 91.3044C240.309 92.1364 239.957 93.2884 239.957 94.7604V117.896H258.581Z" fill="white"/>
</svg>
